<?xml version="1.0" encoding="utf-8"?>
<!-- Generator: Adobe Illustrator 16.0.0, SVG Export Plug-In . SVG Version: 6.00 Build 0)  -->
<!DOCTYPE svg PUBLIC "-//W3C//DTD SVG 1.1//EN" "http://www.w3.org/Graphics/SVG/1.1/DTD/svg11.dtd">
<svg version="1.1" id="Layer_1" xmlns="http://www.w3.org/2000/svg" xmlns:xlink="http://www.w3.org/1999/xlink" x="0px" y="0px"
	 width="600px" height="200px" viewBox="0 0 600 200" enable-background="new 0 0 600 200" xml:space="preserve">
<text transform="matrix(1 0 0 1 316.5547 83.2734)"><tspan x="0" y="0" fill="#547DBF" font-family="'GoogleSansDisplay-Regular'" font-size="55.4911">DevFest</tspan><tspan x="0" y="66.589" fill="#547DBF" font-family="'GoogleSansDisplay-Regular'" font-size="55.4911">Rift Valley</tspan></text>
<g>
	<g>
		<path fill="#547DBF" d="M145.715,151.259c-3.701,6.419-10.431,10.009-17.343,10.009c-3.389,0-6.83-0.866-9.987-2.686
			l-70.249-40.56c-9.565-5.524-12.846-17.761-7.32-27.323c3.708-6.42,10.429-10.009,17.342-10.009c3.39,0,6.831,0.866,9.984,2.686
			l70.252,40.552C147.966,129.455,151.24,141.687,145.715,151.259"/>
		<path fill="#547DBF" d="M180.916,50.133c3.705-6.416,10.428-10.003,17.341-10.003c3.393,0,6.831,0.864,9.986,2.682l70.252,40.565
			c9.562,5.516,12.842,17.756,7.321,27.326c-3.713,6.415-10.433,10.001-17.345,10.001c-3.392,0-6.833-0.859-9.984-2.681
			l-70.252-40.56C178.669,71.94,175.39,59.707,180.916,50.133"/>
		<path fill="#547DBF" d="M138.395,77.462L103.06,97.858L70.601,79.12c-2.96-1.709-6.233-2.778-9.603-3.176l57.394-33.133
			c3.147-1.818,6.588-2.682,9.984-2.682c6.913,0,13.637,3.587,17.338,10.003C151.24,59.701,147.963,71.94,138.395,77.462"/>
		<path fill="#547DBF" d="M188.235,123.937l35.336-20.403l32.46,18.735c2.955,1.713,6.232,2.793,9.599,3.178l-57.392,33.136
			c-3.15,1.819-6.588,2.681-9.981,2.681c-6.913,0-13.636-3.58-17.341-9.999C175.39,141.687,178.669,129.458,188.235,123.937"/>
	</g>
</g>
</svg>
