<?xml version="1.0" encoding="utf-8"?>
<!-- Generator: Adobe Illustrator 16.0.0, SVG Export Plug-In . SVG Version: 6.00 Build 0)  -->
<!DOCTYPE svg PUBLIC "-//W3C//DTD SVG 1.1//EN" "http://www.w3.org/Graphics/SVG/1.1/DTD/svg11.dtd">
<svg version="1.1" id="Layer_1" xmlns="http://www.w3.org/2000/svg" xmlns:xlink="http://www.w3.org/1999/xlink" x="0px" y="0px"
	 width="841.89px" height="595.28px" viewBox="0 0 841.89 595.28" enable-background="new 0 0 841.89 595.28" xml:space="preserve">
<rect fill="#547DBF" width="841.89" height="595.28"/>
<g>
	<g>
		<path fill="#FFFFFF" d="M269.349,334.97c-2.601,4.51-7.331,7.034-12.188,7.034c-2.381,0-4.8-0.608-7.019-1.888L200.77,311.61
			c-6.723-3.883-9.028-12.482-5.145-19.203c2.606-4.512,7.33-7.035,12.188-7.035c2.382,0,4.801,0.609,7.017,1.888l49.375,28.5
			C270.932,319.645,273.233,328.242,269.349,334.97"/>
		<path fill="#FFFFFF" d="M294.089,263.896c2.604-4.509,7.329-7.031,12.188-7.031c2.384,0,4.801,0.608,7.018,1.886l49.375,28.509
			c6.72,3.876,9.025,12.48,5.145,19.205c-2.609,4.509-7.332,7.029-12.19,7.029c-2.384,0-4.803-0.604-7.017-1.884l-49.374-28.506
			C292.51,279.223,290.205,270.625,294.089,263.896"/>
		<path fill="#FFFFFF" d="M264.205,283.104l-24.834,14.334l-22.813-13.17c-2.08-1.201-4.381-1.952-6.749-2.231l40.338-23.286
			c2.212-1.278,4.63-1.886,7.017-1.886c4.859,0,9.584,2.522,12.186,7.031C273.233,270.621,270.93,279.223,264.205,283.104"/>
		<path fill="#FFFFFF" d="M299.233,315.767l24.834-14.34l22.814,13.168c2.076,1.204,4.38,1.962,6.746,2.232l-40.336,23.289
			c-2.214,1.279-4.63,1.884-7.015,1.884c-4.859,0-9.584-2.517-12.188-7.027C290.205,328.242,292.51,319.647,299.233,315.767"/>
	</g>
	<text transform="matrix(1 0 0 1 389.4185 287.1885)"><tspan x="0" y="0" fill="#FFFFFF" font-family="'GoogleSansDisplay-Regular'" font-size="39">DevFest</tspan><tspan x="0" y="46.8" fill="#FFFFFF" font-family="'GoogleSansDisplay-Regular'" font-size="39">Rift Valley 2019</tspan></text>
</g>
<path fill="#FCE293" d="M649.698,165.653c4.954,0,10.257,11.005,10.257,27.386c0,16.383-5.303,27.387-10.257,27.387
	c-4.953,0-10.257-11.004-10.257-27.387C639.441,176.658,644.745,165.653,649.698,165.653 M649.698,164.717
	c-6.182,0-11.193,12.681-11.193,28.322c0,15.644,5.012,28.323,11.193,28.323c6.184,0,11.194-12.68,11.194-28.323
	C660.893,177.397,655.882,164.717,649.698,164.717"/>
<line fill="none" stroke="#FCE293" stroke-width="0.938" stroke-miterlimit="10" x1="622.937" y1="183.599" x2="676.578" y2="183.599"/>
<path fill="#FCE293" d="M649.698,165.653c15.102,0,27.386,12.286,27.386,27.386c0,15.102-12.284,27.387-27.386,27.387
	c-15.1,0-27.385-12.285-27.385-27.387C622.313,177.939,634.599,165.653,649.698,165.653 M649.698,164.717
	c-15.642,0-28.323,12.681-28.323,28.322c0,15.644,12.682,28.323,28.323,28.323c15.644,0,28.323-12.68,28.323-28.323
	C678.021,177.397,665.342,164.717,649.698,164.717"/>
<line fill="none" stroke="#FCE293" stroke-width="0.938" stroke-miterlimit="10" x1="623.105" y1="202.48" x2="676.409" y2="202.48"/>
<rect x="782.707" y="81.826" transform="matrix(0.7071 0.7071 -0.7071 0.7071 295.3158 -532.9772)" fill="#557EBF" width="16.661" height="16.347"/>
<rect x="766.233" y="174.587" fill="#FFFFFF" width="21.796" height="16.347"/>
<rect x="468.651" y="162.144" fill="#A9D8B5" width="65.387" height="29.632"/>
<circle fill="none" stroke="#1D51A3" stroke-width="0.938" stroke-miterlimit="10" cx="547.139" cy="87.044" r="3.952"/>
<path fill="#FCE293" d="M425.1,78.028c0-10.865-8.808-19.673-19.673-19.673s-19.673,8.808-19.673,19.673
	c0,10.865,8.808,19.673,19.673,19.673S425.1,88.893,425.1,78.028"/>
<polygon fill="none" stroke="#F7AB1B" stroke-width="0.938" stroke-miterlimit="10" points="399.871,87.376 415.54,78.33 
	399.871,69.283 "/>
<path fill="#FFFFFF" d="M670.321,45.169c0,5.106-4.154,9.261-9.262,9.261c-5.105,0-9.26-4.155-9.26-9.261"/>
<path fill="none" stroke="#FAD2D0" stroke-width="0.938" stroke-miterlimit="10" d="M695.908,81.869
	c0,9.879-8.008,17.887-17.887,17.887"/>
<path fill="#FFFFFF" d="M551,90.998c0,5.106-4.154,9.261-9.262,9.261c-5.105,0-9.389-4.155-9.389-9.261l-15.273,26.229h16.517"/>
<rect x="769.124" y="52.999" fill="#FFFFFF" width="16.514" height="10.713"/>
<rect x="120.686" y="206.251" fill="#FAD2D0" width="32.752" height="65.389"/>
<path fill="#F9BC15" d="M86.032,76.355L86.032,76.355h65.387c0-12.914-10.469-23.382-23.382-23.382h-18.623
	C96.5,52.973,86.032,63.441,86.032,76.355"/>
<rect x="167.471" y="415.79" fill="#F9BC15" width="21.8" height="16.348"/>
<circle fill="none" stroke="#B1C9E9" stroke-width="0.938" stroke-miterlimit="10" cx="262.802" cy="466.073" r="4.155"/>
<rect x="230.862" y="352.327" transform="matrix(0.7071 0.7071 -0.7071 0.7071 320.103 -61.4377)" fill="#F9BC15" width="6.704" height="6.705"/>
<rect x="197.871" y="159.012" transform="matrix(0.7072 0.7071 -0.7071 0.7072 173.1726 -94.4989)" fill="#A9D8B5" width="5.59" height="5.59"/>
<rect x="187.826" y="148.965" transform="matrix(0.7071 0.7072 -0.7072 0.7071 163.1572 -90.3413)" fill="none" stroke="#228E45" stroke-width="0.938" stroke-miterlimit="10" width="5.59" height="5.59"/>
<rect x="175.575" y="136.715" transform="matrix(0.7071 0.7072 -0.7072 0.7071 150.9059 -85.2668)" fill="none" stroke="#A9D8B5" stroke-width="0.938" stroke-miterlimit="10" width="5.59" height="5.59"/>
<line fill="none" stroke="#557EBF" stroke-width="0.938" stroke-miterlimit="10" x1="58.714" y1="200.001" x2="58.714" y2="173.666"/>
<line fill="none" stroke="#557EBF" stroke-width="0.938" stroke-miterlimit="10" x1="50.589" y1="206.251" x2="50.589" y2="173.666"/>
<polyline fill="none" stroke="#557EBF" stroke-width="0.938" stroke-miterlimit="10" points="28.671,187.458 42.463,187.458 
	42.463,173.667 "/>
<path fill="none" stroke="#557EBF" stroke-width="0.938" stroke-miterlimit="10" d="M49.877,146.168
	c9.028,0,16.347,7.319,16.347,16.347v28.943"/>
<path fill="none" stroke="#557EBF" stroke-width="0.938" stroke-miterlimit="10" d="M66.227,162.515
	c-0.005-5.644-2.937-11.131-8.176-14.156c-7.819-4.514-17.816-1.835-22.33,5.984"/>
<line fill="none" stroke="#557EBF" stroke-width="0.938" stroke-miterlimit="10" x1="35.721" y1="154.342" x2="24.694" y2="173.667"/>
<rect x="746.87" y="267.866" fill="none" stroke="#FFFFFF" stroke-width="0.938" stroke-miterlimit="10" width="27.363" height="27.363"/>
<rect x="137.824" y="518.302" fill="#A9D8B5" width="27.363" height="27.361"/>
<line fill="none" stroke="#FFFFFF" stroke-width="0.938" stroke-miterlimit="10" x1="165.84" y1="546.308" x2="136.866" y2="517.333"/>
<line fill="none" stroke="#FFFFFF" stroke-width="0.938" stroke-miterlimit="10" x1="136.866" y1="546.632" x2="165.971" y2="517.526"/>
<path fill="#FFFFFF" d="M172.902,228.088v22.65v5.572l-6.235-6.235l-0.274-0.275h-0.389h-29.521v-21.712H172.902z M173.839,227.151
	h-38.293v23.587h30.458l7.835,7.835v-7.835V227.151z"/>
<line fill="none" stroke="#36A852" stroke-width="0.938" stroke-miterlimit="10" x1="187.695" y1="500.532" x2="187.695" y2="526.911"/>
<line fill="none" stroke="#36A852" stroke-width="0.938" stroke-miterlimit="10" x1="179.555" y1="494.272" x2="179.555" y2="526.911"/>
<polyline fill="none" stroke="#36A852" stroke-width="0.938" stroke-miterlimit="10" points="160.653,513.097 171.417,513.097 
	171.417,526.911 "/>
<path fill="none" stroke="#36A852" stroke-width="0.938" stroke-miterlimit="10" d="M178.843,549.88
	c9.043,0,16.375-7.332,16.375-16.375v-24.414"/>
<path fill="none" stroke="#36A852" stroke-width="0.938" stroke-miterlimit="10" d="M195.22,533.505
	c-0.005,5.652-2.942,11.15-8.19,14.18c-2.582,1.49-5.403,2.199-8.187,2.195h-18.19"/>
<path fill="none" stroke="#A9D8B5" stroke-width="0.938" stroke-miterlimit="10" d="M18.113,327.761
	c0-5.996,4.877-10.873,10.872-10.873c5.994,0,10.871,4.877,10.871,10.873v24.686h19.389"/>
<path fill="none" stroke="#36A852" stroke-width="0.938" stroke-miterlimit="10" d="M57.938,327.761
	c0-5.996,4.877-10.873,10.872-10.873c5.994,0,10.871,4.877,10.871,10.873"/>
<path fill="#A9D8B5" d="M69.896,367.312c0,11.596-9.401,20.998-20.999,20.998c-11.597,0-20.998-9.402-20.998-20.998H69.896z"/>
<path fill="#FCE293" d="M42.463,180.18c5.393,0,9.78,4.387,9.78,9.779s-4.387,9.78-9.78,9.78c-5.392,0-9.779-4.388-9.779-9.78
	S37.071,180.18,42.463,180.18 M42.463,179.223c-5.929,0-10.736,4.807-10.736,10.736c0,5.929,4.807,10.736,10.736,10.736
	c5.93,0,10.736-4.807,10.736-10.736C53.199,184.03,48.393,179.223,42.463,179.223"/>
<polygon fill="#557EBF" points="429.436,504.405 411.189,493.871 392.943,525.474 "/>
<rect x="777.381" y="388.31" fill="#FAD2D0" width="9.299" height="9.123"/>
<rect x="602.354" y="464.872" fill="#FFFFFF" width="9.123" height="9.123"/>
<path fill="#F9BC15" d="M705.539,497.225l-12.902,12.902l-8.601-8.602l-6.451,6.451l8.602,8.601c5.344,5.344,14.008,5.344,19.353,0
	S710.884,502.569,705.539,497.225"/>
<path fill="#A9D8B5" d="M544.225,495.238L544.225,495.238l-25.804-25.804c-5.097,5.096-5.097,13.358,0,18.454l7.35,7.35
	C530.866,500.334,539.129,500.334,544.225,495.238"/>
<circle fill="none" stroke="#B1C9E9" stroke-width="0.938" stroke-miterlimit="10" cx="390.624" cy="468.51" r="2.319"/>
<path fill="#FAD2D0" d="M775.312,494.751h4.313c5.038,0,9.123-4.085,9.123-9.123c0-5.039-4.085-9.124-9.123-9.124"/>
<polyline fill="none" stroke="#B1C9E9" stroke-width="0.938" stroke-miterlimit="10" points="664.642,458.471 657.995,451.824 
	651.35,458.471 "/>
<path fill="none" stroke="#36A852" stroke-width="0.938" stroke-miterlimit="10" d="M701.517,445.497l7.305,7.304
	c3.563,3.563,9.34,3.563,12.902,0c3.563-3.562,3.563-9.339,0-12.901l-6.314-6.314"/>
<rect x="320.875" y="497.658" fill="#A9D8B5" width="15.271" height="15.271"/>
<line fill="none" stroke="#FFFFFF" stroke-width="0.938" stroke-miterlimit="10" x1="336.51" y1="513.288" x2="320.339" y2="497.118"/>
<line fill="none" stroke="#FFFFFF" stroke-width="0.938" stroke-miterlimit="10" x1="320.339" y1="513.469" x2="336.583" y2="497.225"/>
<line fill="none" stroke="#B1C9E9" stroke-width="0.938" stroke-miterlimit="10" x1="589.919" y1="498.552" x2="589.919" y2="511.83"/>
<line fill="none" stroke="#B1C9E9" stroke-width="0.938" stroke-miterlimit="10" x1="583.28" y1="505.191" x2="596.559" y2="505.191"/>
<line fill="none" stroke="#36A852" stroke-width="0.938" stroke-miterlimit="10" x1="348.707" y1="487.741" x2="348.707" y2="502.463"/>
<line fill="none" stroke="#36A852" stroke-width="0.938" stroke-miterlimit="10" x1="344.165" y1="484.247" x2="344.165" y2="502.463"/>
<polyline fill="none" stroke="#36A852" stroke-width="0.938" stroke-miterlimit="10" points="333.615,494.753 339.623,494.753 
	339.623,502.463 "/>
<path fill="none" stroke="#36A852" stroke-width="0.938" stroke-miterlimit="10" d="M343.767,515.281
	c5.047,0,9.139-4.091,9.139-9.139v-13.625"/>
<path fill="none" stroke="#36A852" stroke-width="0.938" stroke-miterlimit="10" d="M352.907,506.143
	c-0.002,3.155-1.642,6.223-4.571,7.914c-1.441,0.832-3.016,1.227-4.569,1.226h-10.152"/>
<line fill="none" stroke="#A9D8B5" stroke-width="0.938" stroke-miterlimit="10" x1="481.669" y1="463.138" x2="470.339" y2="463.138"/>
<line fill="none" stroke="#A9D8B5" stroke-width="0.938" stroke-miterlimit="10" x1="465.7" y1="463.138" x2="460.889" y2="463.138"/>
<rect x="465.979" y="461.097" transform="matrix(0.7071 0.7071 -0.7071 0.7071 464.5676 -195.2899)" fill="#36A852" width="4.081" height="4.081"/>
<line fill="none" stroke="#F9BC15" stroke-width="0.938" stroke-miterlimit="10" x1="448.568" y1="452.866" x2="448.568" y2="467.563"/>
<line fill="none" stroke="#F9BC15" stroke-width="0.938" stroke-miterlimit="10" x1="453.103" y1="449.378" x2="453.103" y2="467.563"/>
<polyline fill="none" stroke="#F9BC15" stroke-width="0.938" stroke-miterlimit="10" points="465.334,459.866 457.637,459.866 
	457.637,467.563 "/>
<path fill="none" stroke="#F9BC15" stroke-width="0.938" stroke-miterlimit="10" d="M453.5,482.91c-5.039,0-9.123-4.085-9.123-9.123
	v-16.153"/>
<path fill="none" stroke="#F9BC15" stroke-width="0.938" stroke-miterlimit="10" d="M444.375,473.787
	c0.003,3.149,1.64,6.212,4.563,7.9c4.363,2.519,9.942,1.023,12.462-3.34"/>
<line fill="none" stroke="#F9BC15" stroke-width="0.938" stroke-miterlimit="10" x1="461.4" y1="478.348" x2="467.554" y2="467.563"/>
</svg>
