<?xml version="1.0" encoding="utf-8"?>
<!-- Generator: Adobe Illustrator 16.0.0, SVG Export Plug-In . SVG Version: 6.00 Build 0)  -->
<!DOCTYPE svg PUBLIC "-//W3C//DTD SVG 1.1//EN" "http://www.w3.org/Graphics/SVG/1.1/DTD/svg11.dtd">
<svg version="1.1" id="Layer_1" xmlns="http://www.w3.org/2000/svg" xmlns:xlink="http://www.w3.org/1999/xlink" x="0px" y="0px"
	 width="500px" height="500px" viewBox="0 0 500 500" enable-background="new 0 0 500 500" xml:space="preserve">
<g>
	<g>
		<path fill="#FFFFFF" d="M95.608,285.705c-2.679,4.645-7.55,7.243-12.552,7.243c-2.452,0-4.943-0.625-7.229-1.942L24.98,261.648
			c-6.924-4.001-9.297-12.856-5.299-19.778c2.684-4.647,7.549-7.245,12.552-7.245c2.453,0,4.944,0.627,7.227,1.944l50.85,29.352
			C97.238,269.921,99.608,278.775,95.608,285.705"/>
		<path fill="#FFFFFF" d="M121.087,212.507c2.682-4.644,7.548-7.241,12.552-7.241c2.456,0,4.945,0.626,7.228,1.942l50.85,29.36
			c6.921,3.992,9.294,12.853,5.298,19.779c-2.687,4.645-7.551,7.239-12.554,7.239c-2.455,0-4.947-0.621-7.227-1.938l-50.849-29.359
			C119.46,228.292,117.087,219.438,121.087,212.507"/>
		<path fill="#FFFFFF" d="M90.31,232.289l-25.576,14.762L41.24,233.488c-2.142-1.237-4.512-2.01-6.951-2.297l41.543-23.982
			c2.278-1.316,4.768-1.942,7.227-1.942c5.004,0,9.871,2.597,12.55,7.241C99.608,219.433,97.236,228.292,90.31,232.289"/>
		<path fill="#FFFFFF" d="M126.384,265.929l25.576-14.769l23.496,13.562c2.138,1.239,4.511,2.02,6.947,2.299l-41.541,23.985
			c-2.28,1.315-4.768,1.938-7.225,1.938c-5.004,0-9.87-2.591-12.552-7.237C117.087,278.775,119.46,269.926,126.384,265.929"/>
	</g>
	
		<text transform="matrix(1 0 0 1 219.2637 236.4951)" fill="#FFFFFF" font-family="'GoogleSansDisplay-Regular'" font-size="40.1651">DevFest</text>
	
		<text transform="matrix(1 0 0 1 219.2637 284.6934)" fill="#FFFFFF" font-family="'GoogleSansDisplay-Regular'" font-size="40.1651">Rift Valley 2019</text>
</g>
</svg>
