<?xml version="1.0" encoding="utf-8"?>
<!-- Generator: Adobe Illustrator 16.0.0, SVG Export Plug-In . SVG Version: 6.00 Build 0)  -->
<!DOCTYPE svg PUBLIC "-//W3C//DTD SVG 1.1//EN" "http://www.w3.org/Graphics/SVG/1.1/DTD/svg11.dtd">
<svg version="1.1" id="Layer_1" xmlns="http://www.w3.org/2000/svg" xmlns:xlink="http://www.w3.org/1999/xlink" x="0px" y="0px"
	 width="691.417px" height="448px" viewBox="0 0 691.417 448" enable-background="new 0 0 691.417 448" xml:space="preserve">
<g>
	<defs>
		<rect id="SVGID_1_" width="691.417" height="448"/>
	</defs>
	<clipPath id="SVGID_2_">
		<use xlink:href="#SVGID_1_"  overflow="visible"/>
	</clipPath>
	<polygon clip-path="url(#SVGID_2_)" fill="#FFC107" points="187.09,263.54 176.46,245.15 150.94,289.27 172.79,289.27 
		187.38,264.04 	"/>
	<polygon clip-path="url(#SVGID_2_)" fill="#0F9D58" points="164.96,225.27 176.46,245.15 150.94,289.27 127.94,289.27 	"/>
	<g clip-path="url(#SVGID_2_)">
		<defs>
			<rect id="SVGID_3_" width="691.417" height="448"/>
		</defs>
		<clipPath id="SVGID_4_">
			<use xlink:href="#SVGID_3_"  overflow="visible"/>
		</clipPath>
		<g opacity="0.2" clip-path="url(#SVGID_4_)" enable-background="new    ">
			<g>
				<defs>
					<rect id="SVGID_5_" x="150.94" y="263.54" width="36.44" height="25.729"/>
				</defs>
				<clipPath id="SVGID_6_">
					<use xlink:href="#SVGID_5_"  overflow="visible"/>
				</clipPath>
				<polygon clip-path="url(#SVGID_6_)" fill="#BF360C" points="172.79,288.27 151.52,288.27 150.94,289.27 172.79,289.27 
					187.38,264.04 187.09,263.54 				"/>
			</g>
		</g>
		<g opacity="0.2" clip-path="url(#SVGID_4_)" enable-background="new    ">
			<g>
				<defs>
					<rect id="SVGID_7_" x="127.94" y="288.27" width="23.58" height="1"/>
				</defs>
				<clipPath id="SVGID_8_">
					<use xlink:href="#SVGID_7_"  overflow="visible"/>
				</clipPath>
				<polygon clip-path="url(#SVGID_8_)" fill="#263238" points="128.52,288.27 127.94,289.27 150.94,289.27 151.52,288.27 				"/>
			</g>
		</g>
		<g opacity="0.2" clip-path="url(#SVGID_4_)" enable-background="new    ">
			<g>
				<defs>
					<rect id="SVGID_9_" x="127.94" y="225.27" width="37.31" height="64"/>
				</defs>
				<clipPath id="SVGID_10_">
					<use xlink:href="#SVGID_9_"  overflow="visible"/>
				</clipPath>
				<polygon clip-path="url(#SVGID_10_)" fill="#FFFFFF" points="127.94,289.27 128.52,289.27 165.25,225.77 164.96,225.27 				"/>
			</g>
		</g>
	</g>
	<g clip-path="url(#SVGID_2_)">
		<defs>
			<polygon id="SVGID_11_" points="187.38,264.04 187.38,264.04 176.46,245.15 173.78,249.78 			"/>
		</defs>
		<clipPath id="SVGID_12_">
			<use xlink:href="#SVGID_11_"  overflow="visible"/>
		</clipPath>
		<defs>
			<filter id="Adobe_OpacityMaskFilter" filterUnits="userSpaceOnUse" x="173.78" y="245.15" width="13.6" height="18.89">
				<feColorMatrix  type="matrix" values="1 0 0 0 0  0 1 0 0 0  0 0 1 0 0  0 0 0 1 0"/>
			</filter>
		</defs>
		<mask maskUnits="userSpaceOnUse" x="173.78" y="245.15" width="13.6" height="18.89" id="SVGID_13_">
			<g filter="url(#Adobe_OpacityMaskFilter)">
				
					<radialGradient id="SVGID_14_" cx="0" cy="448" r="1" gradientTransform="matrix(44.2635 0 0 44.2635 187.2188 -19566.3906)" gradientUnits="userSpaceOnUse">
					<stop  offset="0" style="stop-color:#333333"/>
					<stop  offset="1" style="stop-color:#050505"/>
				</radialGradient>
				<rect x="173.78" y="245.15" clip-path="url(#SVGID_12_)" fill="url(#SVGID_14_)" width="13.6" height="18.89"/>
			</g>
		</mask>
		
			<radialGradient id="SVGID_15_" cx="0" cy="448" r="1" gradientTransform="matrix(44.2635 0 0 44.2635 187.2188 -19566.3926)" gradientUnits="userSpaceOnUse">
			<stop  offset="0" style="stop-color:#BF360C"/>
			<stop  offset="1" style="stop-color:#BF360C"/>
		</radialGradient>
		
			<rect x="173.78" y="245.15" clip-path="url(#SVGID_12_)" mask="url(#SVGID_13_)" fill="url(#SVGID_15_)" width="13.6" height="18.89"/>
	</g>
	<g clip-path="url(#SVGID_2_)">
		<defs>
			<polygon id="SVGID_16_" points="173.78,249.78 176.46,245.15 164.96,225.27 159.47,234.77 			"/>
		</defs>
		<clipPath id="SVGID_17_">
			<use xlink:href="#SVGID_16_"  overflow="visible"/>
		</clipPath>
		<defs>
			<filter id="Adobe_OpacityMaskFilter_1_" filterUnits="userSpaceOnUse" x="159.47" y="225.27" width="16.99" height="24.511">
				<feColorMatrix  type="matrix" values="1 0 0 0 0  0 1 0 0 0  0 0 1 0 0  0 0 0 1 0"/>
			</filter>
		</defs>
		<mask maskUnits="userSpaceOnUse" x="159.47" y="225.27" width="16.99" height="24.511" id="SVGID_18_">
			<g filter="url(#Adobe_OpacityMaskFilter_1_)">
				
					<radialGradient id="SVGID_19_" cx="0" cy="448" r="1" gradientTransform="matrix(44.6228 0 0 44.6228 187.0938 -19727.0742)" gradientUnits="userSpaceOnUse">
					<stop  offset="0" style="stop-color:#333333"/>
					<stop  offset="1" style="stop-color:#050505"/>
				</radialGradient>
				<rect x="159.47" y="225.271" clip-path="url(#SVGID_17_)" fill="url(#SVGID_19_)" width="16.99" height="24.51"/>
			</g>
		</mask>
		
			<radialGradient id="SVGID_20_" cx="0" cy="448" r="1" gradientTransform="matrix(44.6228 0 0 44.6228 187.0938 -19727.0762)" gradientUnits="userSpaceOnUse">
			<stop  offset="0" style="stop-color:#263238"/>
			<stop  offset="1" style="stop-color:#263238"/>
		</radialGradient>
		
			<rect x="159.47" y="225.27" clip-path="url(#SVGID_17_)" mask="url(#SVGID_18_)" fill="url(#SVGID_20_)" width="16.99" height="24.511"/>
	</g>
	<polygon clip-path="url(#SVGID_2_)" fill="#4285F4" points="150.94,161.27 127.94,161.27 187.38,264.04 198.87,244.17 
		198.88,244.15 	"/>
	<g clip-path="url(#SVGID_2_)">
		<defs>
			<rect id="SVGID_21_" width="691.417" height="448"/>
		</defs>
		<clipPath id="SVGID_22_">
			<use xlink:href="#SVGID_21_"  overflow="visible"/>
		</clipPath>
		<path clip-path="url(#SVGID_22_)" fill="#DB4437" d="M206.33,231.27c2.15-3.71,2.15-8.29,0-12l-33.54-58h-21.85l47.94,82.88
			L206.33,231.27z"/>
		<g opacity="0.2" clip-path="url(#SVGID_22_)" enable-background="new    ">
			<g>
				<defs>
					<rect id="SVGID_23_" x="127.94" y="161.27" width="70.94" height="102.77"/>
				</defs>
				<clipPath id="SVGID_24_">
					<use xlink:href="#SVGID_23_"  overflow="visible"/>
				</clipPath>
				<polygon clip-path="url(#SVGID_24_)" fill="#1A237E" points="198.88,244.15 198.59,243.66 187.38,263.04 128.52,161.27 
					127.94,161.27 187.38,264.04 198.87,244.17 				"/>
			</g>
		</g>
		<g opacity="0.2" clip-path="url(#SVGID_22_)" enable-background="new    ">
			<g>
				<defs>
					<rect id="SVGID_25_" x="127.94" y="161.27" width="79.98" height="64.5"/>
				</defs>
				<clipPath id="SVGID_26_">
					<use xlink:href="#SVGID_25_"  overflow="visible"/>
				</clipPath>
				<path clip-path="url(#SVGID_26_)" fill="#FFFFFF" d="M172.79,162.27l33.54,58c0.99,1.71,1.5,3.6,1.58,5.5
					c0.09-2.24-0.42-4.5-1.58-6.5l-33.54-58h-44.85l0.58,1H172.79z"/>
			</g>
		</g>
		<g opacity="0.2" clip-path="url(#SVGID_22_)" enable-background="new    ">
			<g>
				<defs>
					<rect id="SVGID_27_" x="198.59" y="224.77" width="9.33" height="19.38"/>
				</defs>
				<clipPath id="SVGID_28_">
					<use xlink:href="#SVGID_27_"  overflow="visible"/>
				</clipPath>
				<path clip-path="url(#SVGID_28_)" fill="#3E2723" d="M198.88,244.15l7.45-12.881c1.16-2,1.67-4.26,1.58-6.5
					c-0.08,1.9-0.59,3.79-1.58,5.5l-7.74,13.391L198.88,244.15z"/>
			</g>
		</g>
	</g>
	<g clip-path="url(#SVGID_2_)">
		<defs>
			<path id="SVGID_29_" d="M127.94,161.27l37.02,64l-37.02,64h44.85l33.54-58c2.15-3.71,2.15-8.29,0-12l-33.54-58H127.94z"/>
		</defs>
		<clipPath id="SVGID_30_">
			<use xlink:href="#SVGID_29_"  overflow="visible"/>
		</clipPath>
		<defs>
			<filter id="Adobe_OpacityMaskFilter_2_" filterUnits="userSpaceOnUse" x="127.94" y="161.27" width="80.54" height="128">
				<feColorMatrix  type="matrix" values="1 0 0 0 0  0 1 0 0 0  0 0 1 0 0  0 0 0 1 0"/>
			</filter>
		</defs>
		<mask maskUnits="userSpaceOnUse" x="127.94" y="161.27" width="80.54" height="128" id="SVGID_31_">
			<g filter="url(#Adobe_OpacityMaskFilter_2_)">
				
					<radialGradient id="SVGID_32_" cx="0" cy="448" r="1" gradientTransform="matrix(134.3503 0 0 134.3503 126.875 -60026.6836)" gradientUnits="userSpaceOnUse">
					<stop  offset="0" style="stop-color:#1A1A1A"/>
					<stop  offset="1" style="stop-color:#000000"/>
				</radialGradient>
				<rect x="127.94" y="161.27" clip-path="url(#SVGID_30_)" fill="url(#SVGID_32_)" width="80.54" height="128"/>
			</g>
		</mask>
		
			<radialGradient id="SVGID_33_" cx="0" cy="448" r="1" gradientTransform="matrix(134.3503 0 0 134.3503 126.875 -60026.6836)" gradientUnits="userSpaceOnUse">
			<stop  offset="0" style="stop-color:#FFFFFF"/>
			<stop  offset="1" style="stop-color:#FFFFFF"/>
		</radialGradient>
		
			<rect x="127.94" y="161.27" clip-path="url(#SVGID_30_)" mask="url(#SVGID_31_)" fill="url(#SVGID_33_)" width="80.54" height="128"/>
	</g>
	<g clip-path="url(#SVGID_2_)">
		<defs>
			<rect id="SVGID_34_" width="691.417" height="448"/>
		</defs>
		<clipPath id="SVGID_35_">
			<use xlink:href="#SVGID_34_"  overflow="visible"/>
		</clipPath>
		<g opacity="0.54" clip-path="url(#SVGID_35_)">
			<g>
				<defs>
					<rect id="SVGID_36_" x="255.402" y="169.847" width="308.015" height="108.44"/>
				</defs>
				<clipPath id="SVGID_37_">
					<use xlink:href="#SVGID_36_"  overflow="visible"/>
				</clipPath>
				<path clip-path="url(#SVGID_37_)" d="M370.397,172.447h30.6c31.16,0,50.72,20.68,50.72,49.7c0,29.15-19.569,49.7-50.72,49.7
					h-30.6V172.447z M401.527,256.787c21.689,0,35.13-12.04,35.13-34.641c0-22.47-13.44-34.64-35.13-34.64h-16.07v69.28H401.527z"/>
				<path clip-path="url(#SVGID_37_)" d="M357.827,217.637h-47.67v14.76h33.61c-1.11,7.53-3.72,13.4-7.63,17.32
					c-4.98,4.979-12.76,10.46-26.41,10.46c-21.05,0-37.51-16.97-37.51-38.02c0-21.05,16.46-38.02,37.51-38.02
					c11.35,0,19.65,4.47,25.77,10.21l10.08-10.08c-8.55-8.17-19.9-14.42-35.85-14.42c-28.83,0-53.07,23.47-53.07,52.31
					c0,28.83,24.24,52.31,53.07,52.31c15.56,0,27.3-5.1,36.49-14.67c9.44-9.44,12.38-22.71,12.38-33.43
					C358.597,223.047,358.337,220.187,357.827,217.637"/>
				<path clip-path="url(#SVGID_37_)" d="M562.646,217.637h-47.67v14.76h33.61c-1.11,7.53-3.72,13.4-7.63,17.32
					c-4.98,4.979-12.76,10.46-26.41,10.46c-21.05,0-37.51-16.97-37.51-38.02c0-21.05,16.46-38.02,37.51-38.02
					c11.35,0,19.65,4.47,25.771,10.21l10.079-10.08c-8.55-8.17-19.899-14.42-35.85-14.42c-28.83,0-53.07,23.47-53.07,52.31
					c0,28.83,24.24,52.31,53.07,52.31c15.561,0,27.3-5.1,36.49-14.67c9.439-9.44,12.38-22.71,12.38-33.43
					C563.417,223.047,563.157,220.187,562.646,217.637"/>
			</g>
		</g>
	</g>
</g>
</svg>
